. 
  
http://www.torrentday.com/        :     The Hottest Private Tracker On The Net!!!


               www . TorrentDay . Com 
(((((((((((((= Enjoy No RAR releases =))))))))))))))))))))


...................................NFO:....................................

.[center][img]http://img253.imageshack.us/img253/9553/deathraceposter.jpg[/img]

[color=blue][size=5][b]Death Race 2 2010 BDRip XVID AC3 HQ Hive-CM8[/b][/size][/color]



[b]Thx Hive

CM8 Doing It Right The First Time :D

Why download a touched up rip of a rip BRrip
Get the real deal BDRip
Enjoy

Source Bluray

Video: 720x400 @bitrate 1900 2pass
Audio: DTS to AC3 5.1 @448
Samples: yes included
Subs: yes in srt /subs[/b]


[url]http://www.imdb.com/title/tt1500491/[/url]


General
Complete name                    : Death.Race.2.BDRip.XVID.AC3.HQ.Hive-CM8.avi
Format                           : AVI
Format/Info                      : Audio Video Interleave
File size                        : 1.65 GiB
Duration                         : 1h 40mn
Overall bit rate                 : 2 353 Kbps
Writing application              : Nandub v1.0rc2
Writing library                  : Nandub build 1853/release

Video
ID                               : 0
Format                           : MPEG-4 Visual
Format profile                   : Advanced Simple@L5
Format settings, BVOP            : Yes
Format settings, QPel            : Yes
Format settings, GMC             : No warppoints
Format settings, Matrix          : Default (H.263)
Muxing mode                      : Packed bitstream
Codec ID                         : XVID
Codec ID/Hint                    : XviD
Duration                         : 1h 40mn
Bit rate                         : 1 895 Kbps
Width                            : 720 pixels
Height                           : 400 pixels
Display aspect ratio             : 16:9
Frame rate                       : 23.976 fps
Color space                      : YUV
Chroma subsampling               : 4:2:0
Bit depth                        : 8 bits
Scan type                        : Progressive
Bits/(Pixel*Frame)               : 0.274
Stream size                      : 1.33 GiB (81%)
Writing library                  : XviD 1.2.1 (UTC 2008-12-04)

Audio
ID                               : 1
Format                           : AC-3
Format/Info                      : Audio Coding 3
Mode extension                   : CM (complete main)
Codec ID                         : 2000
Duration                         : 1h 40mn
Bit rate mode                    : Constant
Bit rate                         : 448 Kbps
Channel(s)                       : 6 channels
Channel positions                : Front: L C R, Side: L R, LFE
Sampling rate                    : 48.0 KHz
Bit depth                        : 16 bits
Stream size                      : 321 MiB (19%)
Alignment                        : Split accross interleaves
Interleave, duration             : 42 ms (1.00 video frame)
Interleave, preload duration     : 500 ms



Danny Trejo ... Goldberg
Sean Bean ... Markus Kane
Ving Rhames
Lauren Cohan ... September Jones
Luke Goss ... Carl 'Luke' Lucas
Robin Shou ... 14K
Tanit Phoenix ... Katrina Banks
Frederick Koehler ... Lists
Joe Vaz ... Rocco
Bjorn Steinbach
Warrick Grier ... Calin
Patrick Lyster ... Warden Parks
Kevin Otto ... Ray
Sean Higgs ... Hillbilly Con



In the world's most dangerous prison, a new game is born: Death Race. The rules of this 
adrenaline-fueled blood sport are simple, drive -- or die. When repentant convict 
Carl Lucas (Luke Goss) discovers there's a price on his head, his only hope is to survive 
a twisted race against an army of hardened criminals and tricked-out cars.

Also starring Danny Trejo and Ving Rhames, Death Race 2 tells the explosive story of how the 
legendary race began. Strap yourself in for an insane thrill-ride!



[img]http://img697.imageshack.us/img697/5649/ddedee.png[/img]
[img]http://img254.imageshack.us/img254/239/ddee.png[/img]
[img]http://img819.imageshack.us/img819/6051/23687302.png[/img]
[img]http://img266.imageshack.us/img266/3476/ddedededee.png[/img]
[img]http://img833.imageshack.us/img833/1187/ddededee.png[/img]
[img]http://img443.imageshack.us/img443/7251/ddedededededee.png[/img]
[img]http://img9.imageshack.us/img9/8017/ddededededee.png[/img]





Greetz

iNK,LUSi,,MAGNET,CLASSiFiED,THC,LEGi0N,IMAGiNE,ViSiON,WBZ,FLAWL3SS,NOVA
Rapeseed,D2U,SAFC,goldadvance,MEMORY100,KaN1vE,Unevano,Pinnz,Wayne,Mr Hive
and all P2P groups 
Great Work Guys :D